<svg width="240" height="239" viewBox="0 0 240 239" fill="none" xmlns="http://www.w3.org/2000/svg">
<path d="M136.193 28.0537L136.619 26.213L147.586 28.7499L147.161 30.5906L142.739 29.5678L139.887 41.8985L137.756 41.4055L140.608 29.0748L136.193 28.0537Z" fill="black"/>
<path d="M155.591 42.6636L158.061 36.7756L160.026 37.5997L155.806 47.6598L153.881 46.8522L154.611 45.11L154.507 45.066C154.05 45.506 153.491 45.7979 152.83 45.9417C152.175 46.0829 151.47 45.9952 150.715 45.6783C150.069 45.4073 149.556 45.0255 149.177 44.5329C148.805 44.0378 148.595 43.4491 148.547 42.7668C148.504 42.0863 148.656 41.3313 149.004 40.5017L151.688 34.1028L153.646 34.9241L151.062 41.0873C150.774 41.7728 150.735 42.3982 150.945 42.9636C151.154 43.529 151.562 43.939 152.169 44.1935C152.536 44.3474 152.939 44.4086 153.378 44.3772C153.822 44.3476 154.242 44.1977 154.638 43.9272C155.038 43.6587 155.356 43.2374 155.591 42.6636Z" fill="black"/>
<path d="M161.339 50.844L167.198 41.6417L168.929 42.7441L167.999 44.2059L168.094 44.2669C168.577 43.8785 169.121 43.6772 169.725 43.6632C170.335 43.6477 170.91 43.8116 171.449 44.1549C171.561 44.2261 171.69 44.314 171.837 44.4186C171.988 44.5258 172.103 44.6133 172.184 44.6812L171.093 46.3947C171.033 46.3289 170.92 46.2256 170.751 46.0847C170.585 45.9397 170.41 45.8088 170.227 45.6918C169.803 45.4223 169.369 45.2718 168.923 45.2405C168.483 45.2077 168.067 45.2881 167.675 45.4816C167.285 45.671 166.962 45.9655 166.708 46.3649L163.13 51.9845L161.339 50.844Z" fill="black"/>
<path d="M176.996 54.2589L172.644 59.0563L171.071 57.6295L178.4 49.5497L179.91 50.9192L178.717 52.2343L178.817 52.3249C179.391 52.0657 179.994 51.9861 180.626 52.0861C181.261 52.1892 181.882 52.516 182.488 53.0664C183.039 53.5658 183.416 54.119 183.62 54.7258C183.827 55.3292 183.839 55.9604 183.657 56.6196C183.474 57.2788 183.081 57.9415 182.477 58.6078L177.814 63.7471L176.242 62.3203L180.732 57.3704C181.263 56.7847 181.526 56.1887 181.52 55.5823C181.517 54.9723 181.249 54.4256 180.716 53.942C180.351 53.6112 179.955 53.3958 179.528 53.2959C179.104 53.1992 178.672 53.2287 178.23 53.3843C177.795 53.5395 177.384 53.8311 176.996 54.2589Z" fill="black"/>
<path d="M182.742 69.5968L191.332 62.8719L192.641 64.544L184.051 71.2689L182.742 69.5968ZM193.318 62.6787C193.09 62.3879 192.992 62.0622 193.022 61.7017C193.059 61.3419 193.214 61.0555 193.486 60.8425C193.762 60.6265 194.077 60.5451 194.431 60.5984C194.792 60.6525 195.087 60.8249 195.314 61.1157C195.542 61.4065 195.637 61.7318 195.6 62.0915C195.57 62.4521 195.417 62.7404 195.141 62.9564C194.869 63.1694 194.552 63.2489 194.191 63.1948C193.837 63.1416 193.546 62.9695 193.318 62.6787Z" fill="black"/>
<path d="M195.547 76.9852L189.845 80.0587L188.837 78.1894L198.44 73.013L199.407 74.8072L197.844 75.6498L197.908 75.7685C198.536 75.7153 199.131 75.8411 199.693 76.1458C200.258 76.4547 200.734 76.9696 201.123 77.6907C201.476 78.345 201.647 78.9923 201.637 79.6324C201.631 80.2702 201.433 80.8695 201.041 81.4302C200.649 81.991 200.058 82.4848 199.266 82.9116L193.158 86.2042L192.15 84.3349L198.033 81.1637C198.729 80.7885 199.175 80.314 199.372 79.7402C199.572 79.1641 199.502 78.5594 199.16 77.9259C198.926 77.4924 198.625 77.1574 198.255 76.9209C197.888 76.6886 197.47 76.5722 197.002 76.5718C196.54 76.5733 196.055 76.7111 195.547 76.9852Z" fill="black"/>
<path d="M192.09 95.7123C191.813 94.8911 191.683 94.148 191.699 93.4832C191.717 92.8228 191.84 92.2468 192.07 91.755C192.299 91.2632 192.593 90.8544 192.953 90.5284L194.249 92.0183C194.092 92.2059 193.938 92.4377 193.786 92.7136C193.631 92.9956 193.534 93.338 193.495 93.7409C193.457 94.1482 193.532 94.6301 193.719 95.1866C193.976 95.9495 194.374 96.5173 194.914 96.8901C195.45 97.2644 196.121 97.3157 196.929 97.0439L198.962 96.3598L198.919 96.2319C198.658 96.1848 198.355 96.092 198.009 95.9538C197.664 95.82 197.326 95.5889 196.996 95.2604C196.666 94.9319 196.394 94.4513 196.181 93.8186C195.906 93.0018 195.849 92.2017 196.01 91.4182C196.177 90.6376 196.571 89.9305 197.192 89.2969C197.819 88.6662 198.683 88.1659 199.782 87.796C200.882 87.426 201.887 87.2951 202.797 87.4034C203.709 87.5161 204.484 87.8298 205.122 88.3445C205.765 88.8578 206.225 89.5295 206.505 90.3597C206.721 91.0015 206.787 91.556 206.705 92.0234C206.627 92.4893 206.483 92.8797 206.275 93.1948C206.068 93.5143 205.877 93.7709 205.702 93.9645L205.752 94.1126L207.428 93.5486L208.092 95.5209L197.523 99.077C196.635 99.376 195.836 99.415 195.127 99.1939C194.418 98.9728 193.809 98.556 193.298 97.9436C192.788 97.3356 192.386 96.5919 192.09 95.7123ZM198 93.7011C198.195 94.28 198.494 94.7239 198.898 95.0327C199.307 95.3444 199.8 95.5182 200.377 95.554C200.959 95.5928 201.607 95.4921 202.321 95.252C203.017 95.018 203.594 94.7086 204.054 94.324C204.515 93.9394 204.825 93.4976 204.987 92.9985C205.154 92.498 205.138 91.9537 204.94 91.3659C204.736 90.76 204.409 90.308 203.959 90.0098C203.514 89.7102 202.989 89.5469 202.386 89.5202C201.784 89.498 201.153 89.5978 200.493 89.8198C199.815 90.0478 199.256 90.3511 198.813 90.7297C198.371 91.1082 198.075 91.5478 197.923 92.0483C197.774 92.5533 197.799 93.1043 198 93.7011Z" fill="black"/>
<path d="M196.264 116.636L211.262 116.862L211.238 118.481L209.505 118.455L209.502 118.653C209.689 118.779 209.928 118.953 210.218 119.176C210.513 119.403 210.774 119.724 211 120.139C211.23 120.559 211.34 121.125 211.329 121.835C211.315 122.753 211.074 123.559 210.604 124.253C210.134 124.947 209.475 125.484 208.626 125.864C207.778 126.244 206.78 126.426 205.635 126.409C204.48 126.391 203.481 126.18 202.64 125.774C201.803 125.368 201.158 124.814 200.704 124.111C200.255 123.408 200.038 122.602 200.052 121.693C200.062 120.993 200.187 120.434 200.425 120.016C200.668 119.598 200.94 119.278 201.242 119.055C201.548 118.832 201.802 118.661 202.003 118.541L202.005 118.399L196.238 118.312L196.264 116.636ZM205.783 118.427C204.959 118.415 204.231 118.524 203.598 118.756C202.969 118.988 202.474 119.334 202.112 119.792C201.754 120.251 201.571 120.817 201.561 121.489C201.55 122.19 201.726 122.777 202.088 123.251C202.455 123.73 202.951 124.093 203.578 124.339C204.208 124.59 204.912 124.721 205.688 124.733C206.455 124.745 207.148 124.637 207.767 124.409C208.391 124.187 208.886 123.841 209.253 123.373C209.625 122.91 209.816 122.323 209.827 121.613C209.837 120.931 209.673 120.356 209.334 119.887C209 119.418 208.527 119.06 207.915 118.814C207.308 118.568 206.598 118.439 205.783 118.427Z" fill="black"/>
<path d="M199.302 132.499L210.025 134.505L209.727 136.096L208.107 135.793L208.087 135.905C208.581 136.2 208.945 136.634 209.18 137.208C209.414 137.782 209.472 138.39 209.352 139.032C209.329 139.153 209.298 139.304 209.26 139.484C209.221 139.665 209.188 139.801 209.162 139.892L207.486 139.579C207.511 139.526 207.556 139.402 207.621 139.207C207.69 139.017 207.745 138.813 207.786 138.595C207.883 138.073 207.861 137.587 207.719 137.137C207.581 136.692 207.343 136.315 207.005 136.006C206.672 135.703 206.263 135.506 205.779 135.416L198.993 134.147L199.302 132.499Z" fill="black"/>
<path d="M194.864 148.132C195.206 147.208 195.726 146.479 196.424 145.945C197.12 145.415 197.936 145.101 198.871 145.003C199.804 144.909 200.799 145.058 201.856 145.45C202.922 145.844 203.78 146.382 204.432 147.063C205.082 147.748 205.499 148.518 205.682 149.373C205.863 150.233 205.783 151.125 205.441 152.048C205.099 152.972 204.58 153.699 203.884 154.229C203.186 154.763 202.368 155.076 201.43 155.168C200.491 155.264 199.488 155.115 198.423 154.721C197.366 154.329 196.515 153.792 195.869 153.108C195.222 152.429 194.807 151.66 194.626 150.8C194.443 149.945 194.522 149.055 194.864 148.132ZM196.276 148.655C196.017 149.356 195.983 150 196.175 150.586C196.366 151.172 196.715 151.682 197.221 152.117C197.726 152.552 198.321 152.896 199.005 153.149C199.688 153.402 200.366 153.529 201.037 153.53C201.708 153.532 202.31 153.373 202.841 153.055C203.373 152.737 203.769 152.227 204.029 151.526C204.289 150.824 204.32 150.179 204.124 149.592C203.928 149.004 203.574 148.492 203.064 148.056C202.555 147.619 201.958 147.275 201.274 147.021C200.59 146.768 199.915 146.642 199.248 146.642C198.582 146.643 197.984 146.803 197.457 147.123C196.93 147.442 196.536 147.953 196.276 148.655Z" fill="black"/>
<path d="M188.083 154.22L201.066 161.732L200.255 163.134L198.755 162.266L198.656 162.438C198.758 162.639 198.882 162.908 199.027 163.243C199.174 163.585 199.244 163.993 199.239 164.465C199.235 164.945 199.055 165.492 198.7 166.106C198.24 166.901 197.635 167.487 196.887 167.864C196.139 168.24 195.301 168.388 194.375 168.306C193.449 168.224 192.489 167.896 191.498 167.322C190.498 166.744 189.729 166.072 189.192 165.308C188.66 164.545 188.367 163.747 188.314 162.912C188.265 162.08 188.468 161.27 188.923 160.483C189.274 159.876 189.655 159.449 190.067 159.2C190.483 158.954 190.877 158.807 191.249 158.76C191.625 158.715 191.93 158.689 192.164 158.682L192.235 158.559L187.243 155.671L188.083 154.22ZM195.52 160.427C194.807 160.014 194.117 159.755 193.451 159.648C192.789 159.544 192.188 159.604 191.649 159.828C191.113 160.054 190.677 160.458 190.34 161.04C189.989 161.647 189.856 162.245 189.941 162.836C190.028 163.433 190.284 163.992 190.711 164.512C191.139 165.039 191.689 165.497 192.362 165.886C193.026 166.27 193.683 166.514 194.335 166.617C194.988 166.727 195.588 166.667 196.137 166.437C196.687 166.214 197.14 165.795 197.496 165.18C197.837 164.59 197.975 164.008 197.908 163.433C197.845 162.86 197.607 162.318 197.192 161.805C196.782 161.294 196.225 160.834 195.52 160.427Z" fill="black"/>
<path d="M181.032 171.558C181.704 170.75 182.463 170.202 183.307 169.913C184.152 169.63 185.028 169.599 185.936 169.819C186.844 170.045 187.728 170.516 188.586 171.231C189.445 171.946 190.072 172.732 190.466 173.591C190.861 174.456 191.008 175.323 190.905 176.193C190.804 177.07 190.438 177.886 189.808 178.643C189.444 179.08 189.013 179.45 188.513 179.755C188.013 180.06 187.453 180.25 186.835 180.327C186.22 180.407 185.559 180.327 184.852 180.089C184.144 179.851 183.399 179.407 182.617 178.755L182.071 178.301L187.452 171.839L188.565 172.766L184.275 177.918C184.748 178.312 185.249 178.569 185.778 178.689C186.303 178.812 186.818 178.79 187.32 178.623C187.819 178.46 188.263 178.146 188.651 177.68C189.078 177.167 189.32 176.617 189.378 176.03C189.436 175.45 189.346 174.891 189.109 174.355C188.871 173.819 188.522 173.358 188.06 172.973L187.317 172.355C186.684 171.828 186.057 171.49 185.435 171.342C184.813 171.201 184.224 171.231 183.668 171.433C183.115 171.638 182.622 172.001 182.189 172.521C181.907 172.86 181.7 173.205 181.567 173.556C181.435 173.915 181.382 174.274 181.408 174.635C181.438 174.999 181.553 175.356 181.754 175.708L180.368 176.661C180.055 176.179 179.867 175.65 179.804 175.074C179.745 174.501 179.816 173.913 180.017 173.31C180.221 172.709 180.559 172.125 181.032 171.558Z" fill="black"/>
<path d="M173.67 179.481L180.754 187.777L179.522 188.829L178.452 187.576L178.366 187.649C178.565 188.189 178.576 188.756 178.398 189.35C178.22 189.943 177.883 190.452 177.386 190.877C177.292 190.957 177.174 191.055 177.03 191.171C176.887 191.287 176.776 191.373 176.698 191.427L175.591 190.131C175.643 190.105 175.756 190.036 175.929 189.926C176.102 189.822 176.273 189.697 176.442 189.553C176.846 189.209 177.134 188.817 177.306 188.377C177.478 187.944 177.529 187.501 177.461 187.049C177.392 186.604 177.198 186.194 176.878 185.819L172.396 180.569L173.67 179.481Z" fill="black"/>
<path d="M164.301 199.492L163.574 198.271L168.432 195.38L169.159 196.601L164.301 199.492ZM169.08 199.689L167.639 200.547L162.322 191.612C162.079 191.205 161.839 190.935 161.6 190.801C161.359 190.675 161.124 190.632 160.896 190.675C160.666 190.723 160.445 190.811 160.234 190.937C160.075 191.031 159.95 191.117 159.858 191.194C159.768 191.274 159.696 191.339 159.643 191.388L158.58 190.268C158.656 190.173 158.77 190.056 158.923 189.915C159.074 189.77 159.284 189.618 159.552 189.458C159.959 189.216 160.41 189.066 160.905 189.008C161.395 188.953 161.875 189.029 162.345 189.234C162.81 189.442 163.205 189.818 163.529 190.364L169.08 199.689Z" fill="black"/>
<path d="M149.454 194.423L153.369 204.606L151.804 205.207L147.889 195.025L149.454 194.423ZM153.226 206.609C153.531 206.492 153.834 206.494 154.134 206.617C154.431 206.742 154.635 206.95 154.747 207.241C154.859 207.533 154.847 207.824 154.71 208.115C154.569 208.408 154.346 208.613 154.041 208.73C153.736 208.847 153.436 208.844 153.139 208.719C152.838 208.597 152.632 208.389 152.52 208.098C152.408 207.806 152.422 207.514 152.563 207.221C152.7 206.93 152.921 206.726 153.226 206.609Z" fill="black"/>
<path d="M134.918 198.392C135.948 198.186 136.883 198.236 137.721 198.541C138.556 198.852 139.258 199.379 139.826 200.12C140.39 200.866 140.782 201.788 141.001 202.883C141.22 203.979 141.213 204.985 140.981 205.9C140.745 206.821 140.314 207.588 139.688 208.201C139.058 208.819 138.261 209.225 137.295 209.418C136.738 209.529 136.169 209.546 135.589 209.469C135.008 209.392 134.453 209.189 133.924 208.86C133.396 208.536 132.931 208.059 132.53 207.43C132.129 206.8 131.829 205.986 131.629 204.988L131.49 204.291L139.736 202.644L140.02 204.064L133.446 205.378C133.566 205.982 133.795 206.496 134.131 206.922C134.462 207.348 134.876 207.654 135.372 207.84C135.863 208.026 136.405 208.06 137 207.942C137.654 207.811 138.188 207.535 138.602 207.114C139.011 206.699 139.292 206.209 139.445 205.642C139.597 205.076 139.614 204.498 139.496 203.908L139.307 202.961C139.146 202.153 138.87 201.496 138.479 200.99C138.084 200.489 137.607 200.143 137.047 199.951C136.488 199.763 135.877 199.736 135.213 199.868C134.781 199.954 134.403 200.093 134.079 200.283C133.751 200.479 133.484 200.725 133.278 201.023C133.073 201.324 132.937 201.675 132.872 202.074L131.195 201.946C131.255 201.374 131.441 200.844 131.754 200.357C132.068 199.874 132.492 199.461 133.027 199.117C133.563 198.778 134.193 198.536 134.918 198.392Z" fill="black"/>
<path d="M118.05 208.57L119.544 208.102C119.645 208.351 119.791 208.591 119.982 208.822C120.169 209.059 120.42 209.251 120.737 209.398C121.054 209.546 121.456 209.613 121.943 209.6C122.611 209.581 123.163 209.412 123.599 209.092C124.031 208.777 124.241 208.386 124.228 207.917C124.216 207.501 124.056 207.176 123.746 206.943C123.437 206.71 122.958 206.521 122.31 206.378L120.68 206.025C119.699 205.815 118.962 205.473 118.471 204.998C117.98 204.529 117.723 203.913 117.703 203.151C117.685 202.526 117.85 201.963 118.196 201.461C118.538 200.959 119.024 200.557 119.655 200.255C120.286 199.954 121.026 199.792 121.873 199.768C122.985 199.738 123.912 199.954 124.654 200.417C125.397 200.88 125.877 201.572 126.097 202.494L124.517 202.936C124.35 202.353 124.051 201.921 123.622 201.639C123.188 201.357 122.628 201.225 121.942 201.244C121.161 201.266 120.545 201.448 120.095 201.792C119.641 202.141 119.42 202.55 119.433 203.018C119.443 203.397 119.584 203.71 119.856 203.959C120.128 204.212 120.541 204.395 121.093 204.507L122.922 204.884C123.928 205.093 124.671 205.439 125.154 205.924C125.631 206.413 125.88 207.033 125.901 207.786C125.918 208.401 125.76 208.95 125.427 209.433C125.09 209.916 124.625 210.301 124.031 210.587C123.432 210.873 122.75 211.027 121.983 211.048C120.904 211.078 120.05 210.864 119.422 210.408C118.789 209.951 118.332 209.339 118.05 208.57Z" fill="black"/>
<path d="M95.9848 196.344L92.6338 206.726L91.0387 206.211L94.3897 195.829L95.9848 196.344ZM91.2642 208.194C91.5751 208.295 91.8091 208.487 91.966 208.772C92.1184 209.055 92.1466 209.345 92.0507 209.642C91.9547 209.94 91.7621 210.159 91.4729 210.299C91.1793 210.438 90.877 210.458 90.5661 210.357C90.2552 210.257 90.0235 210.065 89.8711 209.782C89.7141 209.498 89.6837 209.207 89.7797 208.909C89.8757 208.612 90.0705 208.394 90.3641 208.255C90.6533 208.114 90.9533 208.094 91.2642 208.194Z" fill="black"/>
<path d="M81.6021 197.659L84.6443 191.845L86.1295 192.622L81.0722 202.288L79.6374 201.537L80.4276 200.027L80.3017 199.961C79.8184 200.333 79.268 200.548 78.6507 200.604C78.0312 200.665 77.3564 200.504 76.6264 200.122C75.972 199.78 75.4695 199.346 75.1192 198.82C74.7666 198.299 74.5955 197.697 74.606 197.013C74.6143 196.333 74.8335 195.582 75.2637 194.76L78.4772 188.618L79.9624 189.395L76.8016 195.436C76.4043 196.196 76.2919 196.89 76.4646 197.521C76.6351 198.155 77.0643 198.652 77.7524 199.012C78.2264 199.26 78.7039 199.379 79.1849 199.369C79.6616 199.356 80.1101 199.209 80.5304 198.926C80.9507 198.644 81.3079 198.222 81.6021 197.659Z" fill="black"/>
<path d="M62.4964 190.567L63.3582 189.438L67.8524 192.868L66.9907 193.997L62.4964 190.567ZM64.0952 195.075L62.7627 194.058L69.0706 185.792C69.3579 185.416 69.5187 185.092 69.5532 184.821C69.581 184.55 69.5328 184.317 69.4085 184.121C69.2775 183.925 69.1142 183.753 68.9185 183.604C68.7717 183.492 68.6455 183.407 68.5399 183.35C68.4314 183.297 68.3446 183.255 68.2796 183.223L68.922 181.82C69.0382 181.855 69.1901 181.917 69.3778 182.007C69.5684 182.092 69.7879 182.23 70.0363 182.42C70.4127 182.707 70.7199 183.069 70.9577 183.507C71.1918 183.942 71.301 184.415 71.2853 184.927C71.2659 185.437 71.0638 185.944 70.6789 186.448L64.0952 195.075Z" fill="black"/>
<path d="M60.9252 173.774C61.5959 174.495 62.0127 175.287 62.1757 176.151C62.3355 177.011 62.2486 177.88 61.9152 178.759C61.5786 179.635 60.9976 180.457 60.1724 181.224C59.3403 181.998 58.4736 182.522 57.5725 182.798C56.6681 183.07 55.7928 183.095 54.9465 182.874C54.097 182.648 53.3369 182.175 52.6662 181.454C51.9955 180.733 51.5803 179.942 51.4206 179.082C51.2576 178.219 51.3462 177.347 51.6863 176.469C52.0232 175.586 52.6077 174.758 53.4398 173.984C54.265 173.217 55.1281 172.699 56.029 172.43C56.9267 172.158 57.8003 172.134 58.6498 172.359C59.4961 172.581 60.2545 173.052 60.9252 173.774ZM59.8226 174.799C59.3132 174.251 58.7536 173.931 58.1438 173.838C57.5341 173.746 56.9214 173.828 56.3057 174.083C55.69 174.339 55.1152 174.715 54.5813 175.212C54.0473 175.708 53.6288 176.256 53.3256 176.855C53.0225 177.453 52.8932 178.062 52.9378 178.68C52.9823 179.298 53.2594 179.881 53.7688 180.429C54.2783 180.977 54.8396 181.295 55.4528 181.384C56.066 181.474 56.6822 181.389 57.3013 181.13C57.9205 180.871 58.497 180.493 59.031 179.997C59.5649 179.5 59.9818 178.954 60.2814 178.358C60.5811 177.763 60.7069 177.158 60.6589 176.543C60.6108 175.928 60.3321 175.347 59.8226 174.799Z" fill="black"/>
<path d="M51.9071 154.239L38.1473 160.211L36.9596 157.475L38.6405 156.745L38.5868 156.621C38.2647 156.617 37.9147 156.559 37.5369 156.45C37.1527 156.338 36.7862 156.136 36.4373 155.843C36.0822 155.548 35.7831 155.121 35.5399 154.56C35.2232 153.831 35.1221 153.074 35.2366 152.292C35.3468 151.511 35.704 150.77 36.3082 150.069C36.908 149.37 37.7813 148.772 38.9279 148.274C40.0442 147.79 41.0649 147.561 41.9902 147.588C42.9092 147.612 43.7002 147.847 44.3631 148.292C45.0198 148.735 45.5131 149.336 45.843 150.096C46.0768 150.635 46.1866 151.132 46.1726 151.587C46.1566 152.038 46.0658 152.441 45.9002 152.797C45.7303 153.154 45.5337 153.456 45.3103 153.703L45.3471 153.788L50.7025 151.463L51.9071 154.239ZM41.9717 155.322C42.5667 155.064 43.05 154.756 43.4213 154.399C43.7927 154.042 44.0343 153.653 44.1462 153.233C44.2537 152.815 44.2103 152.382 44.0162 151.934C43.8201 151.483 43.5304 151.154 43.1471 150.949C42.7595 150.745 42.3093 150.66 41.7965 150.691C41.2775 150.72 40.727 150.861 40.145 151.114C39.5673 151.364 39.094 151.665 38.7251 152.016C38.3561 152.368 38.1158 152.753 38.0039 153.173C37.8921 153.594 37.9351 154.032 38.1331 154.488C38.3291 154.939 38.6145 155.27 38.9891 155.479C39.3618 155.684 39.8033 155.773 40.3137 155.748C40.824 155.723 41.3767 155.581 41.9717 155.322Z" fill="white"/>
<path d="M42.0108 137.936C42.2727 139.008 42.2715 139.99 42.0073 140.884C41.7373 141.773 41.2446 142.53 40.5293 143.153C39.8094 143.777 38.9067 144.222 37.8213 144.487C36.7266 144.755 35.7182 144.777 34.7961 144.554C33.8693 144.332 33.0833 143.888 32.438 143.222C31.787 142.553 31.3305 141.682 31.0686 140.61C30.8067 139.539 30.8108 138.558 31.0808 137.668C31.345 136.775 31.8371 136.016 32.557 135.392C33.2723 134.769 34.1773 134.323 35.272 134.056C36.3575 133.79 37.3636 133.769 38.2903 133.991C39.2124 134.214 39.999 134.66 40.65 135.33C41.2953 135.996 41.7489 136.865 42.0108 137.936ZM39.7307 138.479C39.6116 137.991 39.3741 137.618 39.0183 137.359C38.6579 137.101 38.2161 136.948 37.6926 136.9C37.1681 136.848 36.5977 136.898 35.9813 137.048C35.365 137.199 34.8362 137.418 34.3948 137.706C33.9523 137.99 33.6307 138.329 33.4299 138.724C33.2292 139.12 33.1884 139.561 33.3075 140.048C33.4278 140.541 33.6692 140.92 34.0318 141.188C34.3933 141.45 34.8364 141.607 35.3609 141.66C35.8843 141.707 36.4542 141.656 37.0705 141.505C37.6868 141.354 38.2163 141.137 38.6587 140.854C39.1001 140.566 39.4206 140.222 39.6202 139.822C39.8141 139.419 39.851 138.971 39.7307 138.479Z" fill="white"/>
<path d="M31.7406 120.473L32.104 123.224C31.8712 123.288 31.6657 123.405 31.4877 123.574C31.305 123.743 31.1658 123.959 31.0703 124.222C30.9698 124.481 30.9317 124.785 30.9562 125.134C30.9889 125.602 31.1157 125.99 31.3365 126.297C31.5527 126.604 31.8237 126.747 32.1496 126.724C32.4094 126.706 32.6217 126.587 32.7867 126.366C32.9516 126.146 33.0707 125.779 33.144 125.266L33.4029 123.269C33.5462 122.196 33.8405 121.382 34.2859 120.829C34.7313 120.276 35.3461 119.972 36.1301 119.917C36.8433 119.867 37.4839 120.033 38.0518 120.416C38.6193 120.794 39.0797 121.336 39.4329 122.042C39.781 122.744 39.9881 123.567 40.0542 124.512C40.155 125.953 39.9354 127.121 39.3954 128.018C38.8503 128.911 38.0633 129.467 37.0345 129.686L36.6708 126.728C37.1038 126.608 37.424 126.367 37.6313 126.006C37.8339 125.645 37.9163 125.196 37.8787 124.657C37.8416 124.128 37.7103 123.71 37.4848 123.403C37.2541 123.092 36.9757 122.945 36.6495 122.963C36.3758 122.987 36.1596 123.119 36.0007 123.358C35.8371 123.597 35.7245 123.956 35.6631 124.435L35.4195 126.346C35.2813 127.423 34.9683 128.24 34.4804 128.797C33.9921 129.348 33.3418 129.652 32.5294 129.709C31.8303 129.758 31.2149 129.611 30.683 129.269C30.1509 128.922 29.7237 128.413 29.4015 127.742C29.0789 127.067 28.8851 126.264 28.82 125.334C28.7238 123.959 28.9386 122.857 29.4644 122.028C29.9898 121.194 30.7486 120.676 31.7406 120.473Z" fill="white"/>
<path d="M32.8829 105.546L32.7761 108.319C32.5359 108.343 32.3137 108.423 32.1097 108.559C31.9009 108.696 31.7272 108.885 31.5886 109.128C31.4458 109.366 31.3569 109.659 31.322 110.008C31.2752 110.474 31.3347 110.878 31.5004 111.218C31.6615 111.558 31.9045 111.744 32.2296 111.776C32.4887 111.802 32.7182 111.721 32.918 111.531C33.1178 111.342 33.2972 111.001 33.4561 110.508L34.0488 108.583C34.3714 107.549 34.7989 106.797 35.3314 106.327C35.8639 105.857 36.5212 105.661 37.3033 105.74C38.0147 105.811 38.6179 106.083 39.1129 106.557C39.6084 107.025 39.9706 107.637 40.1993 108.393C40.4238 109.143 40.4889 109.99 40.3944 110.932C40.2503 112.369 39.8363 113.484 39.1525 114.277C38.4644 115.064 37.5948 115.479 36.5437 115.521L36.6851 112.544C37.1323 112.499 37.4885 112.316 37.7538 111.995C38.0145 111.674 38.1717 111.245 38.2256 110.707C38.2785 110.18 38.2197 109.746 38.0492 109.405C37.8746 109.059 37.6249 108.867 37.3003 108.83C37.0266 108.807 36.7912 108.9 36.5942 109.109C36.3925 109.317 36.2209 109.652 36.0795 110.114L35.5164 111.956C35.1981 112.995 34.7515 113.747 34.1766 114.213C33.6021 114.674 32.9097 114.864 32.0994 114.783C31.4022 114.713 30.8204 114.464 30.3541 114.037C29.8882 113.604 29.5532 113.031 29.3489 112.316C29.1451 111.596 29.0898 110.772 29.1828 109.843C29.3203 108.472 29.7183 107.423 30.3766 106.694C31.0355 105.961 31.8709 105.578 32.8829 105.546Z" fill="white"/>
<path d="M42.3368 99.2903L31.8222 96.3829L32.6285 93.4668L43.1431 96.3741L42.3368 99.2903ZM30.8719 94.5432C30.752 94.9768 30.5054 95.309 30.1321 95.5398C29.7555 95.7648 29.3641 95.8212 28.9579 95.7088C28.5563 95.5978 28.2541 95.3497 28.0511 94.9644C27.8448 94.5733 27.8016 94.161 27.9215 93.7275C28.0414 93.2939 28.2896 92.9646 28.6662 92.7396C29.0396 92.5088 29.427 92.4489 29.8286 92.56C30.2348 92.6723 30.541 92.924 30.7473 93.315C30.9502 93.7003 30.9918 94.1097 30.8719 94.5432Z" fill="white"/>
<path d="M45.4211 89.6167L32.2585 83.4267L33.5461 80.6888L38.4949 83.0161L38.5342 82.9325C38.325 82.6876 38.1366 82.3872 37.9692 82.0311C37.7995 81.6688 37.7092 81.26 37.6982 80.8049C37.685 80.3435 37.8084 79.8364 38.0683 79.2837C38.4068 78.5638 38.9076 77.9884 39.5708 77.5573C40.2297 77.1241 41.0219 76.9028 41.9472 76.8932C42.8683 76.8816 43.8945 77.1418 45.0256 77.6738C46.1268 78.1916 46.973 78.8067 47.5641 79.519C48.153 80.2249 48.4993 80.9738 48.6031 81.7656C48.7046 82.5511 48.5791 83.3188 48.2264 84.0686C47.9766 84.5999 47.6762 85.0106 47.3252 85.3008C46.9762 85.5866 46.6135 85.7849 46.237 85.8957C45.8563 86.0044 45.4996 86.0564 45.1669 86.0517L45.1095 86.1738L46.6905 86.9173L45.4211 89.6167ZM41.7455 84.6154C42.3325 84.8914 42.8828 85.0508 43.3964 85.0935C43.91 85.1362 44.3615 85.0608 44.7508 84.8671C45.1358 84.6714 45.4321 84.353 45.6396 83.9116C45.8492 83.466 45.9044 83.0315 45.8052 82.6082C45.7018 82.1828 45.4688 81.7881 45.1064 81.424C44.7416 81.0537 44.2722 80.7335 43.698 80.4635C43.1281 80.1955 42.5895 80.039 42.0822 79.994C41.5749 79.9491 41.1266 80.0234 40.7373 80.217C40.348 80.4107 40.0476 80.7325 39.836 81.1824C39.6264 81.628 39.567 82.0604 39.6575 82.4798C39.7501 82.8948 39.9745 83.2855 40.3307 83.6518C40.6869 84.0181 41.1585 84.3393 41.7455 84.6154Z" fill="white"/>
<path d="M53.5786 74.5843L44.6332 68.3402L46.3649 65.8593L55.3103 72.1033L53.5786 74.5843ZM44.35 66.289C44.0925 66.6578 43.7494 66.8889 43.3205 66.9822C42.8904 67.0689 42.5026 66.9916 42.1571 66.7504C41.8154 66.5119 41.6131 66.1772 41.55 65.7464C41.4859 65.3089 41.5825 64.9058 41.8399 64.5369C42.0974 64.1681 42.4412 63.9403 42.8712 63.8536C43.3001 63.7604 43.6854 63.833 44.0271 64.0714C44.3726 64.3126 44.5775 64.652 44.6417 65.0894C44.7047 65.5203 44.6075 65.9202 44.35 66.289Z" fill="white"/>
<path d="M53.9397 51.6341L64.2883 61.8555L62.1622 64.0081L51.8136 53.7867L53.9397 51.6341Z" fill="white"/>
<path d="M72.4087 55.0346L66.0545 46.1671L68.5138 44.4048L74.8681 53.2723L72.4087 55.0346ZM66.4708 44.1388C66.1052 44.4008 65.7047 44.5043 65.2692 44.4494C64.8348 44.3878 64.4949 44.1858 64.2495 43.8433C64.0068 43.5046 63.9275 43.1216 64.0116 42.6944C64.0968 42.2605 64.3222 41.9126 64.6879 41.6506C65.0535 41.3886 65.4535 41.2883 65.8879 41.3499C66.3233 41.4048 66.6624 41.6016 66.9051 41.9403C67.1505 42.2828 67.2307 42.671 67.1455 43.1049C67.0613 43.5321 66.8365 43.8768 66.4708 44.1388Z" fill="white"/>
<path d="M83.2839 36.1548L84.2765 38.1993L78.3665 41.0684L77.3739 39.0239L83.2839 36.1548ZM77.5742 36.0213L80.296 34.7L84.7377 43.8493C84.8597 44.1006 84.9931 44.2779 85.138 44.3812C85.2809 44.4803 85.4339 44.5245 85.5971 44.5137C85.7645 44.5008 85.9398 44.4499 86.123 44.361C86.2508 44.299 86.3734 44.2263 86.4908 44.143C86.6062 44.0554 86.6949 43.9886 86.7568 43.9428L88.1681 45.7603C88.0525 45.8691 87.8846 46.0111 87.6644 46.1864C87.4463 46.366 87.1636 46.548 86.8163 46.7324C86.1727 47.0764 85.5553 47.2682 84.964 47.3079C84.377 47.3455 83.8449 47.2196 83.3675 46.9303C82.8902 46.6409 82.4976 46.1736 82.1896 45.5284L77.5742 36.0213Z" fill="white"/>
<path d="M96.6759 42.8746L93.6388 32.3968L96.5447 31.5545L99.5819 42.0322L96.6759 42.8746ZM94.7071 30.623C94.275 30.7482 93.8629 30.7124 93.4706 30.5155C93.0815 30.3128 92.8283 30.0091 92.711 29.6043C92.595 29.2041 92.6478 28.8166 92.8695 28.4418C93.0944 28.0611 93.4228 27.8082 93.8548 27.6829C94.2869 27.5577 94.6974 27.5965 95.0865 27.7992C95.4788 27.9961 95.7329 28.2946 95.8489 28.6948C95.9662 29.0995 95.9124 29.4922 95.6876 29.8729C95.4659 30.2477 95.1391 30.4978 94.7071 30.623Z" fill="white"/>
<path d="M111.878 40.0403C110.763 40.1661 109.778 40.0485 108.923 39.6876C108.071 39.3214 107.382 38.7463 106.855 37.9624C106.328 37.1737 106 36.2077 105.871 35.0644C105.745 33.9493 105.851 32.9463 106.189 32.0552C106.527 31.1642 107.062 30.4391 107.795 29.88C108.532 29.3204 109.433 28.9806 110.496 28.8606C111.211 28.78 111.89 28.8201 112.532 28.9812C113.179 29.1369 113.758 29.417 114.271 29.8214C114.788 30.2253 115.215 30.7584 115.552 31.4209C115.888 32.0786 116.108 32.8686 116.212 33.7907L116.306 34.6165L107.152 35.6489L106.942 33.7858L113.265 33.0725C113.216 32.6396 113.079 32.2668 112.853 31.954C112.627 31.6411 112.337 31.4095 111.982 31.2589C111.63 31.1032 111.236 31.05 110.799 31.0993C110.342 31.1508 109.949 31.3023 109.62 31.5538C109.296 31.8001 109.054 32.1109 108.896 32.486C108.738 32.8565 108.681 33.2561 108.724 33.6848L108.924 35.4562C108.985 35.9926 109.136 36.4449 109.377 36.8131C109.624 37.1808 109.942 37.4498 110.333 37.6201C110.724 37.7905 111.171 37.8472 111.675 37.7905C112.009 37.7528 112.309 37.6712 112.576 37.5458C112.843 37.4204 113.065 37.2525 113.241 37.042C113.418 36.8315 113.542 36.5839 113.615 36.2994L116.416 36.1692C116.351 36.8533 116.127 37.4693 115.746 38.0174C115.369 38.5603 114.852 39.0092 114.197 39.3643C113.545 39.7141 112.772 39.9395 111.878 40.0403Z" fill="white"/>
<path d="M130.462 32.077L127.687 32.088C127.653 31.8489 127.564 31.6303 127.419 31.4323C127.274 31.2295 127.077 31.064 126.829 30.9359C126.585 30.8033 126.288 30.7269 125.938 30.7068C125.47 30.6798 125.07 30.7564 124.737 30.9364C124.404 31.1117 124.229 31.3625 124.21 31.6886C124.195 31.9486 124.286 32.1744 124.484 32.366C124.682 32.5576 125.03 32.7223 125.53 32.8602L127.478 33.3707C128.524 33.6491 129.294 34.0443 129.786 34.5564C130.278 35.0685 130.502 35.7169 130.457 36.5016C130.415 37.2153 130.169 37.8296 129.717 38.3442C129.27 38.8592 128.674 39.247 127.929 39.5076C127.188 39.7638 126.346 39.8646 125.4 39.8102C123.958 39.7272 122.827 39.3609 122.006 38.7114C121.19 38.0573 120.739 37.2061 120.652 36.1577L123.632 36.1728C123.696 36.6175 123.894 36.9657 124.226 37.2172C124.558 37.4639 124.994 37.6028 125.533 37.6338C126.062 37.6643 126.493 37.5872 126.826 37.4024C127.164 37.2132 127.345 36.9556 127.369 36.6297C127.38 36.3553 127.277 36.1241 127.06 35.9361C126.844 35.7434 126.502 35.5862 126.034 35.4645L124.17 34.9801C123.119 34.7062 122.348 34.2919 121.858 33.7373C121.373 33.1829 121.154 32.4992 121.201 31.6862C121.241 30.9866 121.465 30.3948 121.872 29.9107C122.284 29.427 122.843 29.0679 123.549 28.8334C124.26 28.5993 125.081 28.509 126.012 28.5626C127.388 28.6418 128.453 28.9948 129.209 29.6216C129.97 30.2488 130.388 31.0672 130.462 32.077Z" fill="white"/>
</svg>
